<mxfile host="app.diagrams.net" agent="Mozilla/5.0 (Windows NT 10.0; Win64; x64) AppleWebKit/537.36 (KHTML, like Gecko) Chrome/130.0.0.0 Safari/537.36 Edg/130.0.0.0" version="24.8.3">
  <diagram name="Página-1" id="DdwxRvPnzAUL33TIam-c">
    <mxGraphModel grid="1" page="1" gridSize="10" guides="1" tooltips="1" connect="1" arrows="1" fold="1" pageScale="1" pageWidth="827" pageHeight="1169" math="0" shadow="0">
      <root>
        <mxCell id="0" />
        <mxCell id="1" parent="0" />
        <mxCell id="nNPZTIPzfyIlbZu1QNrM-1" value="Noticia" style="whiteSpace=wrap;html=1;align=center;fillColor=#f8cecc;strokeColor=#b85450;" vertex="1" parent="1">
          <mxGeometry x="720" y="210" width="150" height="100" as="geometry" />
        </mxCell>
        <mxCell id="nNPZTIPzfyIlbZu1QNrM-2" value="Administrador" style="whiteSpace=wrap;html=1;align=center;fillColor=#f8cecc;strokeColor=#b85450;" vertex="1" parent="1">
          <mxGeometry x="230" y="435" width="150" height="90" as="geometry" />
        </mxCell>
        <mxCell id="nNPZTIPzfyIlbZu1QNrM-3" value="Autor" style="whiteSpace=wrap;html=1;align=center;fillColor=#f8cecc;strokeColor=#b85450;" vertex="1" parent="1">
          <mxGeometry x="845" y="640" width="100" height="40" as="geometry" />
        </mxCell>
        <mxCell id="nNPZTIPzfyIlbZu1QNrM-4" value="Categoria" style="whiteSpace=wrap;html=1;align=center;fillColor=#f8cecc;strokeColor=#b85450;" vertex="1" parent="1">
          <mxGeometry x="440" y="710" width="100" height="40" as="geometry" />
        </mxCell>
        <mxCell id="nNPZTIPzfyIlbZu1QNrM-5" value="Notificación" style="whiteSpace=wrap;html=1;align=center;fillColor=#f8cecc;strokeColor=#b85450;" vertex="1" parent="1">
          <mxGeometry x="1340" y="450" width="100" height="40" as="geometry" />
        </mxCell>
        <mxCell id="nNPZTIPzfyIlbZu1QNrM-6" value="Nombre" style="ellipse;whiteSpace=wrap;html=1;align=center;fillColor=#e1d5e7;strokeColor=#9673a6;" vertex="1" parent="1">
          <mxGeometry x="90" y="320" width="100" height="40" as="geometry" />
        </mxCell>
        <mxCell id="nNPZTIPzfyIlbZu1QNrM-13" style="edgeStyle=orthogonalEdgeStyle;rounded=0;orthogonalLoop=1;jettySize=auto;html=1;entryX=0.25;entryY=0;entryDx=0;entryDy=0;" edge="1" parent="1" source="nNPZTIPzfyIlbZu1QNrM-7" target="nNPZTIPzfyIlbZu1QNrM-2">
          <mxGeometry relative="1" as="geometry" />
        </mxCell>
        <mxCell id="nNPZTIPzfyIlbZu1QNrM-7" value="AdministradorID" style="ellipse;whiteSpace=wrap;html=1;align=center;fillColor=#e1d5e7;strokeColor=#9673a6;" vertex="1" parent="1">
          <mxGeometry x="70" y="380" width="100" height="40" as="geometry" />
        </mxCell>
        <mxCell id="nNPZTIPzfyIlbZu1QNrM-15" style="edgeStyle=orthogonalEdgeStyle;rounded=0;orthogonalLoop=1;jettySize=auto;html=1;entryX=0.25;entryY=1;entryDx=0;entryDy=0;" edge="1" parent="1" source="nNPZTIPzfyIlbZu1QNrM-8" target="nNPZTIPzfyIlbZu1QNrM-2">
          <mxGeometry relative="1" as="geometry" />
        </mxCell>
        <mxCell id="nNPZTIPzfyIlbZu1QNrM-8" value="Contraseña" style="ellipse;whiteSpace=wrap;html=1;align=center;fillColor=#e1d5e7;strokeColor=#9673a6;" vertex="1" parent="1">
          <mxGeometry x="60" y="540" width="100" height="40" as="geometry" />
        </mxCell>
        <mxCell id="nNPZTIPzfyIlbZu1QNrM-14" style="edgeStyle=orthogonalEdgeStyle;rounded=0;orthogonalLoop=1;jettySize=auto;html=1;entryX=0;entryY=0.25;entryDx=0;entryDy=0;" edge="1" parent="1" source="nNPZTIPzfyIlbZu1QNrM-9" target="nNPZTIPzfyIlbZu1QNrM-2">
          <mxGeometry relative="1" as="geometry" />
        </mxCell>
        <mxCell id="nNPZTIPzfyIlbZu1QNrM-9" value="Correo" style="ellipse;whiteSpace=wrap;html=1;align=center;fillColor=#e1d5e7;strokeColor=#9673a6;" vertex="1" parent="1">
          <mxGeometry x="60" y="460" width="100" height="40" as="geometry" />
        </mxCell>
        <mxCell id="nNPZTIPzfyIlbZu1QNrM-16" style="edgeStyle=orthogonalEdgeStyle;rounded=0;orthogonalLoop=1;jettySize=auto;html=1;entryX=0.5;entryY=1;entryDx=0;entryDy=0;" edge="1" parent="1" source="nNPZTIPzfyIlbZu1QNrM-10" target="nNPZTIPzfyIlbZu1QNrM-2">
          <mxGeometry relative="1" as="geometry" />
        </mxCell>
        <mxCell id="nNPZTIPzfyIlbZu1QNrM-10" value="Permisos" style="ellipse;whiteSpace=wrap;html=1;align=center;fillColor=#e1d5e7;strokeColor=#9673a6;" vertex="1" parent="1">
          <mxGeometry x="70" y="620" width="100" height="40" as="geometry" />
        </mxCell>
        <mxCell id="nNPZTIPzfyIlbZu1QNrM-17" style="edgeStyle=orthogonalEdgeStyle;rounded=0;orthogonalLoop=1;jettySize=auto;html=1;entryX=0.75;entryY=1;entryDx=0;entryDy=0;" edge="1" parent="1" source="nNPZTIPzfyIlbZu1QNrM-11" target="nNPZTIPzfyIlbZu1QNrM-2">
          <mxGeometry relative="1" as="geometry">
            <Array as="points">
              <mxPoint x="343" y="705" />
            </Array>
          </mxGeometry>
        </mxCell>
        <mxCell id="nNPZTIPzfyIlbZu1QNrM-11" value="PermisosPublicar" style="ellipse;whiteSpace=wrap;html=1;align=center;fillColor=#e1d5e7;strokeColor=#9673a6;" vertex="1" parent="1">
          <mxGeometry x="120" y="685" width="100" height="40" as="geometry" />
        </mxCell>
        <mxCell id="nNPZTIPzfyIlbZu1QNrM-12" style="edgeStyle=orthogonalEdgeStyle;rounded=0;orthogonalLoop=1;jettySize=auto;html=1;entryX=0.75;entryY=0;entryDx=0;entryDy=0;" edge="1" parent="1" source="nNPZTIPzfyIlbZu1QNrM-6" target="nNPZTIPzfyIlbZu1QNrM-2">
          <mxGeometry relative="1" as="geometry">
            <mxPoint x="319" y="420" as="targetPoint" />
          </mxGeometry>
        </mxCell>
        <mxCell id="nNPZTIPzfyIlbZu1QNrM-18" value="CategoriaID" style="ellipse;whiteSpace=wrap;html=1;align=center;fillColor=#e1d5e7;strokeColor=#9673a6;" vertex="1" parent="1">
          <mxGeometry x="364" y="920" width="100" height="40" as="geometry" />
        </mxCell>
        <mxCell id="nNPZTIPzfyIlbZu1QNrM-20" style="edgeStyle=orthogonalEdgeStyle;rounded=0;orthogonalLoop=1;jettySize=auto;html=1;entryX=0.25;entryY=1;entryDx=0;entryDy=0;" edge="1" parent="1" source="nNPZTIPzfyIlbZu1QNrM-19" target="nNPZTIPzfyIlbZu1QNrM-4">
          <mxGeometry relative="1" as="geometry" />
        </mxCell>
        <mxCell id="nNPZTIPzfyIlbZu1QNrM-19" value="Nombre" style="ellipse;whiteSpace=wrap;html=1;align=center;fillColor=#e1d5e7;strokeColor=#9673a6;" vertex="1" parent="1">
          <mxGeometry x="260" y="840" width="100" height="40" as="geometry" />
        </mxCell>
        <mxCell id="nNPZTIPzfyIlbZu1QNrM-21" style="edgeStyle=orthogonalEdgeStyle;rounded=0;orthogonalLoop=1;jettySize=auto;html=1;entryX=0.67;entryY=0.95;entryDx=0;entryDy=0;entryPerimeter=0;exitX=1;exitY=0.5;exitDx=0;exitDy=0;" edge="1" parent="1" source="nNPZTIPzfyIlbZu1QNrM-18">
          <mxGeometry relative="1" as="geometry">
            <mxPoint x="466.5" y="940" as="sourcePoint" />
            <mxPoint x="493.4999999999998" y="748" as="targetPoint" />
          </mxGeometry>
        </mxCell>
        <mxCell id="nNPZTIPzfyIlbZu1QNrM-23" style="edgeStyle=orthogonalEdgeStyle;rounded=0;orthogonalLoop=1;jettySize=auto;html=1;entryX=0.75;entryY=1;entryDx=0;entryDy=0;" edge="1" parent="1" source="nNPZTIPzfyIlbZu1QNrM-22" target="nNPZTIPzfyIlbZu1QNrM-3">
          <mxGeometry relative="1" as="geometry" />
        </mxCell>
        <mxCell id="nNPZTIPzfyIlbZu1QNrM-22" value="AutorID" style="ellipse;whiteSpace=wrap;html=1;align=center;fillColor=#e1d5e7;strokeColor=#9673a6;" vertex="1" parent="1">
          <mxGeometry x="1025" y="760" width="100" height="40" as="geometry" />
        </mxCell>
        <mxCell id="nNPZTIPzfyIlbZu1QNrM-25" style="edgeStyle=orthogonalEdgeStyle;rounded=0;orthogonalLoop=1;jettySize=auto;html=1;" edge="1" parent="1" source="nNPZTIPzfyIlbZu1QNrM-24" target="nNPZTIPzfyIlbZu1QNrM-3">
          <mxGeometry relative="1" as="geometry" />
        </mxCell>
        <mxCell id="nNPZTIPzfyIlbZu1QNrM-24" value="Nombre" style="ellipse;whiteSpace=wrap;html=1;align=center;fillColor=#e1d5e7;strokeColor=#9673a6;" vertex="1" parent="1">
          <mxGeometry x="955" y="825" width="100" height="40" as="geometry" />
        </mxCell>
        <mxCell id="nNPZTIPzfyIlbZu1QNrM-36" style="edgeStyle=orthogonalEdgeStyle;rounded=0;orthogonalLoop=1;jettySize=auto;html=1;entryX=0;entryY=0.25;entryDx=0;entryDy=0;" edge="1" parent="1" source="nNPZTIPzfyIlbZu1QNrM-26" target="nNPZTIPzfyIlbZu1QNrM-1">
          <mxGeometry relative="1" as="geometry" />
        </mxCell>
        <mxCell id="nNPZTIPzfyIlbZu1QNrM-26" value="NoticiaID" style="ellipse;whiteSpace=wrap;html=1;align=center;fillColor=#e1d5e7;strokeColor=#9673a6;" vertex="1" parent="1">
          <mxGeometry x="475" y="150" width="100" height="40" as="geometry" />
        </mxCell>
        <mxCell id="nNPZTIPzfyIlbZu1QNrM-37" style="edgeStyle=orthogonalEdgeStyle;rounded=0;orthogonalLoop=1;jettySize=auto;html=1;entryX=0;entryY=0;entryDx=0;entryDy=0;" edge="1" parent="1" source="nNPZTIPzfyIlbZu1QNrM-27" target="nNPZTIPzfyIlbZu1QNrM-1">
          <mxGeometry relative="1" as="geometry">
            <Array as="points">
              <mxPoint x="680" y="100" />
              <mxPoint x="680" y="190" />
            </Array>
          </mxGeometry>
        </mxCell>
        <mxCell id="nNPZTIPzfyIlbZu1QNrM-27" value="Titulo" style="ellipse;whiteSpace=wrap;html=1;align=center;fillColor=#e1d5e7;strokeColor=#9673a6;" vertex="1" parent="1">
          <mxGeometry x="565" y="80" width="100" height="40" as="geometry" />
        </mxCell>
        <mxCell id="nNPZTIPzfyIlbZu1QNrM-38" style="edgeStyle=orthogonalEdgeStyle;rounded=0;orthogonalLoop=1;jettySize=auto;html=1;entryX=0.25;entryY=0;entryDx=0;entryDy=0;" edge="1" parent="1" source="nNPZTIPzfyIlbZu1QNrM-28" target="nNPZTIPzfyIlbZu1QNrM-1">
          <mxGeometry relative="1" as="geometry" />
        </mxCell>
        <mxCell id="nNPZTIPzfyIlbZu1QNrM-28" value="Autor" style="ellipse;whiteSpace=wrap;html=1;align=center;fillColor=#e1d5e7;strokeColor=#9673a6;" vertex="1" parent="1">
          <mxGeometry x="695" y="60" width="100" height="40" as="geometry" />
        </mxCell>
        <mxCell id="nNPZTIPzfyIlbZu1QNrM-39" style="edgeStyle=orthogonalEdgeStyle;rounded=0;orthogonalLoop=1;jettySize=auto;html=1;entryX=0.75;entryY=0;entryDx=0;entryDy=0;" edge="1" parent="1" source="nNPZTIPzfyIlbZu1QNrM-29" target="nNPZTIPzfyIlbZu1QNrM-1">
          <mxGeometry relative="1" as="geometry" />
        </mxCell>
        <mxCell id="nNPZTIPzfyIlbZu1QNrM-29" value="Contenido" style="ellipse;whiteSpace=wrap;html=1;align=center;fillColor=#e1d5e7;strokeColor=#9673a6;" vertex="1" parent="1">
          <mxGeometry x="820" y="60" width="100" height="40" as="geometry" />
        </mxCell>
        <mxCell id="nNPZTIPzfyIlbZu1QNrM-40" style="edgeStyle=orthogonalEdgeStyle;rounded=0;orthogonalLoop=1;jettySize=auto;html=1;entryX=1;entryY=0.25;entryDx=0;entryDy=0;" edge="1" parent="1" source="nNPZTIPzfyIlbZu1QNrM-30" target="nNPZTIPzfyIlbZu1QNrM-1">
          <mxGeometry relative="1" as="geometry" />
        </mxCell>
        <mxCell id="nNPZTIPzfyIlbZu1QNrM-30" value="Categoria" style="ellipse;whiteSpace=wrap;html=1;align=center;fillColor=#e1d5e7;strokeColor=#9673a6;" vertex="1" parent="1">
          <mxGeometry x="955" y="80" width="100" height="40" as="geometry" />
        </mxCell>
        <mxCell id="nNPZTIPzfyIlbZu1QNrM-31" value="Fecha de creación" style="ellipse;whiteSpace=wrap;html=1;align=center;fillColor=#e1d5e7;strokeColor=#9673a6;" vertex="1" parent="1">
          <mxGeometry x="1090" y="220" width="100" height="40" as="geometry" />
        </mxCell>
        <mxCell id="nNPZTIPzfyIlbZu1QNrM-35" style="edgeStyle=orthogonalEdgeStyle;rounded=0;orthogonalLoop=1;jettySize=auto;html=1;entryX=0;entryY=0.5;entryDx=0;entryDy=0;" edge="1" parent="1" source="nNPZTIPzfyIlbZu1QNrM-32" target="nNPZTIPzfyIlbZu1QNrM-1">
          <mxGeometry relative="1" as="geometry" />
        </mxCell>
        <mxCell id="nNPZTIPzfyIlbZu1QNrM-32" value="Fecha publicación" style="ellipse;whiteSpace=wrap;html=1;align=center;fillColor=#e1d5e7;strokeColor=#9673a6;" vertex="1" parent="1">
          <mxGeometry x="450" y="220" width="100" height="40" as="geometry" />
        </mxCell>
        <mxCell id="nNPZTIPzfyIlbZu1QNrM-34" value="Administrador" style="ellipse;whiteSpace=wrap;html=1;align=center;fillColor=#e1d5e7;strokeColor=#9673a6;" vertex="1" parent="1">
          <mxGeometry x="1025" y="150" width="100" height="40" as="geometry" />
        </mxCell>
        <mxCell id="nNPZTIPzfyIlbZu1QNrM-41" style="edgeStyle=orthogonalEdgeStyle;rounded=0;orthogonalLoop=1;jettySize=auto;html=1;entryX=1.001;entryY=0.43;entryDx=0;entryDy=0;entryPerimeter=0;" edge="1" parent="1" source="nNPZTIPzfyIlbZu1QNrM-34" target="nNPZTIPzfyIlbZu1QNrM-1">
          <mxGeometry relative="1" as="geometry" />
        </mxCell>
        <mxCell id="nNPZTIPzfyIlbZu1QNrM-42" style="edgeStyle=orthogonalEdgeStyle;rounded=0;orthogonalLoop=1;jettySize=auto;html=1;entryX=1.001;entryY=0.607;entryDx=0;entryDy=0;entryPerimeter=0;" edge="1" parent="1" source="nNPZTIPzfyIlbZu1QNrM-31" target="nNPZTIPzfyIlbZu1QNrM-1">
          <mxGeometry relative="1" as="geometry">
            <Array as="points">
              <mxPoint x="980" y="240" />
              <mxPoint x="980" y="271" />
            </Array>
          </mxGeometry>
        </mxCell>
        <mxCell id="nNPZTIPzfyIlbZu1QNrM-50" style="edgeStyle=orthogonalEdgeStyle;rounded=0;orthogonalLoop=1;jettySize=auto;html=1;entryX=0.5;entryY=0;entryDx=0;entryDy=0;" edge="1" parent="1" source="nNPZTIPzfyIlbZu1QNrM-43" target="nNPZTIPzfyIlbZu1QNrM-5">
          <mxGeometry relative="1" as="geometry" />
        </mxCell>
        <mxCell id="nNPZTIPzfyIlbZu1QNrM-43" value="NotificaciónID" style="ellipse;whiteSpace=wrap;html=1;align=center;fillColor=#e1d5e7;strokeColor=#9673a6;" vertex="1" parent="1">
          <mxGeometry x="1411" y="340" width="100" height="40" as="geometry" />
        </mxCell>
        <mxCell id="nNPZTIPzfyIlbZu1QNrM-49" style="edgeStyle=orthogonalEdgeStyle;rounded=0;orthogonalLoop=1;jettySize=auto;html=1;entryX=1;entryY=0.25;entryDx=0;entryDy=0;" edge="1" parent="1" source="nNPZTIPzfyIlbZu1QNrM-44" target="nNPZTIPzfyIlbZu1QNrM-5">
          <mxGeometry relative="1" as="geometry" />
        </mxCell>
        <mxCell id="nNPZTIPzfyIlbZu1QNrM-44" value="Noticia" style="ellipse;whiteSpace=wrap;html=1;align=center;fillColor=#e1d5e7;strokeColor=#9673a6;" vertex="1" parent="1">
          <mxGeometry x="1511" y="430" width="100" height="40" as="geometry" />
        </mxCell>
        <mxCell id="nNPZTIPzfyIlbZu1QNrM-48" style="edgeStyle=orthogonalEdgeStyle;rounded=0;orthogonalLoop=1;jettySize=auto;html=1;entryX=1;entryY=0.75;entryDx=0;entryDy=0;" edge="1" parent="1" source="nNPZTIPzfyIlbZu1QNrM-45" target="nNPZTIPzfyIlbZu1QNrM-5">
          <mxGeometry relative="1" as="geometry" />
        </mxCell>
        <mxCell id="nNPZTIPzfyIlbZu1QNrM-45" value="Fecha Notificación" style="ellipse;whiteSpace=wrap;html=1;align=center;fillColor=#e1d5e7;strokeColor=#9673a6;" vertex="1" parent="1">
          <mxGeometry x="1500" y="500" width="100" height="40" as="geometry" />
        </mxCell>
        <mxCell id="nNPZTIPzfyIlbZu1QNrM-47" style="edgeStyle=orthogonalEdgeStyle;rounded=0;orthogonalLoop=1;jettySize=auto;html=1;" edge="1" parent="1" source="nNPZTIPzfyIlbZu1QNrM-46" target="nNPZTIPzfyIlbZu1QNrM-5">
          <mxGeometry relative="1" as="geometry" />
        </mxCell>
        <mxCell id="nNPZTIPzfyIlbZu1QNrM-46" value="Publicado Por" style="ellipse;whiteSpace=wrap;html=1;align=center;fillColor=#e1d5e7;strokeColor=#9673a6;" vertex="1" parent="1">
          <mxGeometry x="1411" y="570" width="100" height="40" as="geometry" />
        </mxCell>
        <mxCell id="nNPZTIPzfyIlbZu1QNrM-56" value="" style="edgeStyle=entityRelationEdgeStyle;fontSize=12;html=1;endArrow=ERoneToMany;rounded=0;exitX=1;exitY=0.5;exitDx=0;exitDy=0;" edge="1" parent="1" source="nNPZTIPzfyIlbZu1QNrM-59">
          <mxGeometry width="100" height="100" relative="1" as="geometry">
            <mxPoint x="590" y="338.0999999999998" as="sourcePoint" />
            <mxPoint x="720" y="280" as="targetPoint" />
            <Array as="points">
              <mxPoint x="855" y="308.1" />
              <mxPoint x="755" y="368.1" />
              <mxPoint x="700" y="280" />
              <mxPoint x="755" y="348.1" />
              <mxPoint x="865" y="378.1" />
              <mxPoint x="855" y="308.1" />
              <mxPoint x="860" y="318.1" />
            </Array>
          </mxGeometry>
        </mxCell>
        <mxCell id="nNPZTIPzfyIlbZu1QNrM-58" value="" style="edgeStyle=entityRelationEdgeStyle;fontSize=12;html=1;endArrow=ERone;endFill=1;rounded=0;entryX=1;entryY=0.5;entryDx=0;entryDy=0;exitX=0;exitY=0.5;exitDx=0;exitDy=0;" edge="1" parent="1" source="nNPZTIPzfyIlbZu1QNrM-59" target="nNPZTIPzfyIlbZu1QNrM-2">
          <mxGeometry width="100" height="100" relative="1" as="geometry">
            <mxPoint x="460" y="349.9999999999998" as="sourcePoint" />
            <mxPoint x="580" y="330" as="targetPoint" />
          </mxGeometry>
        </mxCell>
        <mxCell id="nNPZTIPzfyIlbZu1QNrM-59" value="Publicar" style="shape=rhombus;perimeter=rhombusPerimeter;whiteSpace=wrap;html=1;align=center;fillColor=#dae8fc;strokeColor=#6c8ebf;" vertex="1" parent="1">
          <mxGeometry x="460" y="320" width="120" height="60" as="geometry" />
        </mxCell>
        <mxCell id="nNPZTIPzfyIlbZu1QNrM-60" value="Tiene" style="shape=rhombus;perimeter=rhombusPerimeter;whiteSpace=wrap;html=1;align=center;fillColor=#dae8fc;strokeColor=#6c8ebf;" vertex="1" parent="1">
          <mxGeometry x="555" y="470" width="120" height="60" as="geometry" />
        </mxCell>
        <mxCell id="nNPZTIPzfyIlbZu1QNrM-61" value="" style="edgeStyle=entityRelationEdgeStyle;fontSize=12;html=1;endArrow=ERoneToMany;rounded=0;entryX=1;entryY=0.25;entryDx=0;entryDy=0;exitX=0;exitY=0.5;exitDx=0;exitDy=0;" edge="1" parent="1" source="nNPZTIPzfyIlbZu1QNrM-60" target="nNPZTIPzfyIlbZu1QNrM-4">
          <mxGeometry width="100" height="100" relative="1" as="geometry">
            <mxPoint x="690" y="550" as="sourcePoint" />
            <mxPoint x="790" y="450" as="targetPoint" />
          </mxGeometry>
        </mxCell>
        <mxCell id="nNPZTIPzfyIlbZu1QNrM-62" value="" style="edgeStyle=entityRelationEdgeStyle;fontSize=12;html=1;endArrow=ERone;endFill=1;rounded=0;entryX=0.006;entryY=0.899;entryDx=0;entryDy=0;exitX=1;exitY=0.5;exitDx=0;exitDy=0;entryPerimeter=0;" edge="1" parent="1" source="nNPZTIPzfyIlbZu1QNrM-60" target="nNPZTIPzfyIlbZu1QNrM-1">
          <mxGeometry width="100" height="100" relative="1" as="geometry">
            <mxPoint x="690" y="550" as="sourcePoint" />
            <mxPoint x="790" y="450" as="targetPoint" />
          </mxGeometry>
        </mxCell>
        <mxCell id="nNPZTIPzfyIlbZu1QNrM-63" value="Tiene" style="shape=rhombus;perimeter=rhombusPerimeter;whiteSpace=wrap;html=1;align=center;fillColor=#dae8fc;strokeColor=#6c8ebf;" vertex="1" parent="1">
          <mxGeometry x="880" y="440" width="120" height="60" as="geometry" />
        </mxCell>
        <mxCell id="nNPZTIPzfyIlbZu1QNrM-64" value="" style="edgeStyle=entityRelationEdgeStyle;fontSize=12;html=1;endArrow=ERone;endFill=1;rounded=0;entryX=1.001;entryY=0.922;entryDx=0;entryDy=0;exitX=0;exitY=0.5;exitDx=0;exitDy=0;entryPerimeter=0;" edge="1" parent="1" source="nNPZTIPzfyIlbZu1QNrM-63" target="nNPZTIPzfyIlbZu1QNrM-1">
          <mxGeometry width="100" height="100" relative="1" as="geometry">
            <mxPoint x="720" y="610" as="sourcePoint" />
            <mxPoint x="820" y="510" as="targetPoint" />
          </mxGeometry>
        </mxCell>
        <mxCell id="nNPZTIPzfyIlbZu1QNrM-67" value="Publicar" style="shape=rhombus;perimeter=rhombusPerimeter;whiteSpace=wrap;html=1;align=center;fillColor=#dae8fc;strokeColor=#6c8ebf;" vertex="1" parent="1">
          <mxGeometry x="1040" y="320" width="120" height="60" as="geometry" />
        </mxCell>
        <mxCell id="nNPZTIPzfyIlbZu1QNrM-68" value="" style="edgeStyle=entityRelationEdgeStyle;fontSize=12;html=1;endArrow=ERone;endFill=1;rounded=0;entryX=1;entryY=0.75;entryDx=0;entryDy=0;exitX=0;exitY=0.5;exitDx=0;exitDy=0;" edge="1" parent="1" source="nNPZTIPzfyIlbZu1QNrM-67" target="nNPZTIPzfyIlbZu1QNrM-1">
          <mxGeometry width="100" height="100" relative="1" as="geometry">
            <mxPoint x="1015" y="500" as="sourcePoint" />
            <mxPoint x="965" y="292" as="targetPoint" />
          </mxGeometry>
        </mxCell>
        <mxCell id="nNPZTIPzfyIlbZu1QNrM-69" value="" style="edgeStyle=entityRelationEdgeStyle;fontSize=12;html=1;endArrow=ERone;endFill=1;rounded=0;exitX=1;exitY=0.5;exitDx=0;exitDy=0;entryX=0;entryY=0.5;entryDx=0;entryDy=0;" edge="1" parent="1" source="nNPZTIPzfyIlbZu1QNrM-67" target="nNPZTIPzfyIlbZu1QNrM-5">
          <mxGeometry width="100" height="100" relative="1" as="geometry">
            <mxPoint x="980" y="470" as="sourcePoint" />
            <mxPoint x="1080" y="370" as="targetPoint" />
            <Array as="points">
              <mxPoint x="1110" y="430" />
              <mxPoint x="1270" y="460" />
              <mxPoint x="1230" y="510" />
            </Array>
          </mxGeometry>
        </mxCell>
        <mxCell id="nNPZTIPzfyIlbZu1QNrM-70" value="" style="edgeStyle=entityRelationEdgeStyle;fontSize=12;html=1;endArrow=ERoneToMany;rounded=0;entryX=1;entryY=0.5;entryDx=0;entryDy=0;" edge="1" parent="1" target="nNPZTIPzfyIlbZu1QNrM-3">
          <mxGeometry width="100" height="100" relative="1" as="geometry">
            <mxPoint x="1010" y="470" as="sourcePoint" />
            <mxPoint x="1000" y="650" as="targetPoint" />
            <Array as="points">
              <mxPoint x="1020" y="450" />
              <mxPoint x="1055" y="360" />
              <mxPoint x="1135" y="600" />
              <mxPoint x="1175" y="550" />
              <mxPoint x="1115" y="560" />
              <mxPoint x="1145" y="610" />
              <mxPoint x="1085" y="570" />
              <mxPoint x="1065" y="430" />
              <mxPoint x="1055" y="420" />
              <mxPoint x="1055" y="440" />
              <mxPoint x="1055" y="440" />
              <mxPoint x="1065" y="460" />
              <mxPoint x="815" y="450" />
            </Array>
          </mxGeometry>
        </mxCell>
        <mxCell id="c4vWMZYC0u2m1FDuFJB8-1" value="Entidad" style="whiteSpace=wrap;html=1;fillColor=#f8cecc;strokeColor=#b85450;" vertex="1" parent="1">
          <mxGeometry x="20" y="20" width="70" height="30" as="geometry" />
        </mxCell>
        <mxCell id="c4vWMZYC0u2m1FDuFJB8-2" value="Atributo" style="ellipse;whiteSpace=wrap;html=1;align=center;fillColor=#e1d5e7;strokeColor=#9673a6;" vertex="1" parent="1">
          <mxGeometry x="110" y="15" width="70" height="40" as="geometry" />
        </mxCell>
        <mxCell id="c4vWMZYC0u2m1FDuFJB8-3" value="Relación" style="shape=rhombus;perimeter=rhombusPerimeter;whiteSpace=wrap;html=1;align=center;fillColor=#dae8fc;strokeColor=#6c8ebf;" vertex="1" parent="1">
          <mxGeometry x="190" y="12.5" width="85" height="45" as="geometry" />
        </mxCell>
        <mxCell id="gGX3MSvwYjtmxtw3zNob-1" value="Organización" style="ellipse;whiteSpace=wrap;html=1;align=center;fillColor=#e1d5e7;strokeColor=#9673a6;" vertex="1" parent="1">
          <mxGeometry x="820" y="890" width="100" height="40" as="geometry" />
        </mxCell>
        <mxCell id="gGX3MSvwYjtmxtw3zNob-2" style="edgeStyle=orthogonalEdgeStyle;rounded=0;orthogonalLoop=1;jettySize=auto;html=1;entryX=0.25;entryY=1;entryDx=0;entryDy=0;" edge="1" parent="1" source="gGX3MSvwYjtmxtw3zNob-1" target="nNPZTIPzfyIlbZu1QNrM-3">
          <mxGeometry relative="1" as="geometry" />
        </mxCell>
        <mxCell id="gGX3MSvwYjtmxtw3zNob-3" value="Cargo" style="ellipse;whiteSpace=wrap;html=1;align=center;fillColor=#e1d5e7;strokeColor=#9673a6;" vertex="1" parent="1">
          <mxGeometry x="727" y="825" width="100" height="40" as="geometry" />
        </mxCell>
        <mxCell id="gGX3MSvwYjtmxtw3zNob-4" style="edgeStyle=orthogonalEdgeStyle;rounded=0;orthogonalLoop=1;jettySize=auto;html=1;entryX=0.097;entryY=0.994;entryDx=0;entryDy=0;entryPerimeter=0;" edge="1" parent="1" source="gGX3MSvwYjtmxtw3zNob-3" target="nNPZTIPzfyIlbZu1QNrM-3">
          <mxGeometry relative="1" as="geometry" />
        </mxCell>
      </root>
    </mxGraphModel>
  </diagram>
</mxfile>
